<svg width="889" height="594" viewBox="0 0 889 594" fill="none" xmlns="http://www.w3.org/2000/svg">
<path d="M398.897 379.83L703.185 404.854L703.309 405.114L792.646 593.828H315.627L398.525 379.799L398.897 379.83ZM317.086 592.828H791.066L702.527 405.802L399.187 380.856L317.086 592.828ZM510.329 20.4902L405.329 326.49L405.265 326.679L405.089 326.771L0.588867 538.771L0 537.978L509.5 19.9775L510.329 20.4902ZM2.94922 536.404L404.448 325.978L508.669 22.2471L2.94922 536.404ZM812.24 393.366L811.81 393.326L412.81 355.826L412.771 354.835L839.522 281.206L812.24 393.366ZM416.646 355.182L811.473 392.289L838.19 282.45L416.646 355.182ZM852.763 251.759L430.648 333.475L436.376 313.689L436.44 313.466L436.652 313.372L888.597 111.449L852.763 251.759ZM437.271 314.189L432.063 332.181L851.95 250.896L887.115 113.206L437.271 314.189ZM629.524 192.539L441.521 292.337L531.743 0L629.524 192.539ZM443.19 290.319L628.188 192.116L531.97 2.6543L443.19 290.319Z" fill="white"/>
<path fill-rule="evenodd" clip-rule="evenodd" d="M791.066 592.828H317.086L399.187 380.856L702.527 405.802L791.066 592.828Z" fill="white"/>
<path fill-rule="evenodd" clip-rule="evenodd" d="M811.473 392.289L416.646 355.182L838.19 282.45L811.473 392.289Z" fill="white"/>
<path fill-rule="evenodd" clip-rule="evenodd" d="M432.063 332.181L437.271 314.189L887.115 113.206L851.95 250.896L432.063 332.181Z" fill="white"/>
<path fill-rule="evenodd" clip-rule="evenodd" d="M628.188 192.116L443.19 290.319L531.97 2.6543L628.188 192.116Z" fill="white"/>
<path fill-rule="evenodd" clip-rule="evenodd" d="M404.448 325.978L2.94922 536.404L508.669 22.2471L404.448 325.978Z" fill="white"/>
</svg>
